HIERARCHY
ROOT SpineBase
{
  OFFSET 0.000000 0.000000 0.000000
  CHANNELS 6 Xposition Yposition Zposition Zrotation Xrotation Yrotation
  JOINT SpineMid
  {
    OFFSET -0.000000 29.924669 0.000000
    CHANNELS 3 Zrotation Xrotation Yrotation
    JOINT SpineShoulder
    {
      OFFSET -0.340880 21.419814 -0.612566
      CHANNELS 3 Zrotation Xrotation Yrotation
      JOINT Neck
      {
        OFFSET 0.062320 7.074757 -0.423936
        CHANNELS 3 Zrotation Xrotation Yrotation
        JOINT Head
        {
          OFFSET -0.730500 11.339986 5.287931
          CHANNELS 3 Zrotation Xrotation Yrotation
          End Site
          {
            OFFSET 0 0 0
          }
        }
      }
      JOINT ShoulderLeft
      {
        OFFSET -8.376557 7.125876 0.370100
        CHANNELS 3 Zrotation Xrotation Yrotation
        JOINT ElbowLeft
        {
          OFFSET 0.537324 -26.146439 -13.990657
          CHANNELS 3 Zrotation Xrotation Yrotation
          JOINT WristLeft
          {
            OFFSET 0.417021 -25.722248 -13.203312
            CHANNELS 3 Zrotation Xrotation Yrotation
            JOINT HandLeft
            {
              OFFSET -0.948166 -6.840402 -1.481088
              CHANNELS 3 Zrotation Xrotation Yrotation
              JOINT HandTipLeft
              {
                OFFSET -0.443813 -4.028648 -1.315936
                CHANNELS 3 Zrotation Xrotation Yrotation
                End Site
                {
                  OFFSET 0 0 0
                }
              }
              JOINT ThumbLeft
              {
                OFFSET 0.713030 -0.237235 -0.951902
                CHANNELS 3 Zrotation Xrotation Yrotation
                End Site
                {
                  OFFSET 0 0 0
                }
              }
            }
          }
        }
      }
      JOINT ShoulderRight
      {
        OFFSET 0.209292 -4.618151 -11.975592
        CHANNELS 3 Zrotation Xrotation Yrotation
        JOINT ElbowRight
        {
          OFFSET -6.552692 -25.502772 -7.055930
          CHANNELS 3 Zrotation Xrotation Yrotation
          JOINT WristRight
          {
            OFFSET -6.638827 -20.218276 -3.938990
            CHANNELS 3 Zrotation Xrotation Yrotation
            JOINT HandRight
            {
              OFFSET -1.872597 -3.755086 0.853962
              CHANNELS 3 Zrotation Xrotation Yrotation
              JOINT HandTipRight
              {
                OFFSET -2.150807 -4.560114 0.135939
                CHANNELS 3 Zrotation Xrotation Yrotation
                End Site
                {
                  OFFSET 0 0 0
                }
              }
              JOINT ThumbRight
              {
                OFFSET 2.981115 -0.490957 -0.381966
                CHANNELS 3 Zrotation Xrotation Yrotation
                End Site
                {
                  OFFSET 0 0 0
                }
              }
            }
          }
        }
      }
    }
  }
  JOINT HipLeft
  {
    OFFSET -2.730577 0.598260 -7.237723
    CHANNELS 3 Zrotation Xrotation Yrotation
    JOINT KneeLeft
    {
      OFFSET -1.500390 -30.449662 1.804968
      CHANNELS 3 Zrotation Xrotation Yrotation
      JOINT AnkleLeft
      {
        OFFSET -9.064243 -21.140667 7.310777
        CHANNELS 3 Zrotation Xrotation Yrotation
        JOINT FootLeft
        {
          OFFSET 5.081967 -1.583806 -6.275411
          CHANNELS 3 Zrotation Xrotation Yrotation
          End Site
          {
            OFFSET 0 0 0
          }
        }
      }
    }
  }
  JOINT HipRight
  {
    OFFSET 3.639906 0.393916 0.472761
    CHANNELS 3 Zrotation Xrotation Yrotation
    JOINT KneeRight
    {
      OFFSET 6.507153 -22.522047 18.498993
      CHANNELS 3 Zrotation Xrotation Yrotation
      JOINT AnkleRight
      {
        OFFSET 10.962793 -15.279073 11.993968
        CHANNELS 3 Zrotation Xrotation Yrotation
        JOINT FootRight
        {
          OFFSET -7.658774 -4.764411 -7.654761
          CHANNELS 3 Zrotation Xrotation Yrotation
          End Site
          {
            OFFSET 0 0 0
          }
        }
      }
    }
  }
}
MOTION
Frames: 7
Frame Time: 0.033333
3.858580 65.281446 400.208010 7.558841 -8.119594 26.880965 -0.758116 -0.336089 -26.206563 1.167294 -0.154151 0.427995 -5.651057 -1.247291 -1.987684 0.000000 0.000000 0.000000 24.455533 26.769864 -24.607952 -14.039725 -40.204348 10.755677 21.276988 -33.266373 12.569299 -25.935183 31.806064 11.853111 0.000000 0.000000 0.000000 0.000000 0.000000 0.000000 13.718568 20.168363 -14.579320 -9.339840 -18.337101 9.177883 -5.174432 9.487917 -1.596463 0.437605 2.780564 -1.940674 0.000000 0.000000 0.000000 0.000000 0.000000 0.000000 -18.718331 32.480699 -22.227733 28.403760 2.148783 0.973185 -17.747195 -21.893444 50.408559 0.000000 0.000000 0.000000 43.530457 37.155418 -3.993433 -40.939874 19.706696 -48.830568 30.761119 -34.661886 14.310912 0.000000 0.000000 0.000000
4.963407 59.008252 403.295175 7.764586 -8.693347 19.488242 -1.030126 -0.241845 -18.746201 1.278094 0.143342 0.403865 -5.658967 -0.989109 -1.943961 0.000000 0.000000 0.000000 28.439115 30.251833 -28.187604 -11.819690 -48.657320 13.051745 23.831393 -36.262738 15.628980 -27.555802 37.752062 13.047563 0.000000 0.000000 0.000000 0.000000 0.000000 0.000000 16.705838 29.247931 -20.107772 -7.032812 -35.350371 15.953693 -3.531478 6.838187 1.173055 -1.698489 14.929133 -8.219617 0.000000 0.000000 0.000000 0.000000 0.000000 0.000000 -35.730630 44.286836 -6.596786 40.641883 -7.669240 7.926600 -16.160045 -17.941863 51.179844 0.000000 0.000000 0.000000 57.408033 50.585870 7.172133 -47.622729 28.589352 -70.806367 39.357223 -35.938708 23.049711 0.000000 0.000000 0.000000
6.626812 52.476049 406.569567 8.754065 -9.124541 7.487770 -0.946232 -0.490109 -6.608200 1.332418 0.025594 0.449187 -6.734614 0.553745 -1.830522 0.000000 0.000000 0.000000 31.879036 34.432525 -32.537552 -8.536983 -56.368460 16.283284 21.263444 -36.505223 17.466928 -21.469880 39.904296 8.190245 0.000000 0.000000 0.000000 0.000000 0.000000 0.000000 20.969646 40.419323 -28.535931 2.385796 -56.660216 30.090869 2.889337 8.631233 1.339257 6.111302 27.917191 -20.148949 0.000000 0.000000 0.000000 0.000000 0.000000 0.000000 -71.024057 44.903621 21.638410 59.650407 -13.320298 18.183178 -17.001935 -23.297350 49.099490 0.000000 0.000000 0.000000 71.507392 71.407245 12.974814 -51.555255 36.995567 -92.350997 42.455699 -31.435668 19.642716 0.000000 0.000000 0.000000
8.765269 48.029940 410.144790 10.062807 -9.985830 8.307347 -0.900983 -0.213149 -7.227857 1.262029 -0.135490 0.515910 -8.220653 4.667337 -1.426008 0.000000 0.000000 0.000000 34.547673 37.809460 -36.471957 -5.399062 -61.045289 19.297572 16.588219 -33.614403 17.259982 -15.241162 37.563214 3.374432 0.000000 0.000000 0.000000 0.000000 0.000000 0.000000 26.657376 50.869614 -38.685018 36.731927 -72.486424 67.250362 9.194246 7.434282 1.965566 3.467265 35.772510 -26.016147 0.000000 0.000000 0.000000 0.000000 0.000000 0.000000 -99.763738 49.958842 43.300221 75.990492 -16.875285 30.397190 -19.935824 -28.512505 58.489569 0.000000 0.000000 0.000000 111.179230 75.989791 -11.200584 -52.496778 45.614599 -109.430779 51.574663 -33.680538 24.188784 0.000000 0.000000 0.000000
10.270991 43.389917 411.966202 10.813209 -10.182139 8.363445 -0.907407 0.093049 -7.195887 1.252966 -0.305298 0.555474 -9.895174 5.768429 -0.733513 0.000000 0.000000 0.000000 32.654752 37.839239 -35.453745 -4.905740 -60.403864 18.880444 14.882352 -25.707664 13.040292 -14.232669 30.029886 2.146987 0.000000 0.000000 0.000000 0.000000 0.000000 0.000000 37.844423 60.716769 -54.068682 98.864533 -72.187428 130.523979 19.504462 2.232128 3.344955 4.030585 39.875354 -33.910299 0.000000 0.000000 0.000000 0.000000 0.000000 0.000000 -111.830746 48.312910 51.121796 81.735141 -17.906213 33.514177 -18.712472 -34.665637 63.152005 0.000000 0.000000 0.000000 147.220511 77.261897 -42.512449 -53.394895 46.321692 -118.752030 53.572215 -33.168112 23.456778 0.000000 0.000000 0.000000
10.444955 40.342870 412.151856 11.180861 -9.802658 7.329209 -0.907520 0.336062 -6.169649 1.283227 -0.641244 0.594472 -14.390957 2.466626 1.535965 0.000000 0.000000 0.000000 27.590668 32.958454 -30.789934 -10.278179 -52.990529 14.714709 1.013767 -21.578495 12.586102 2.734416 22.342237 -7.317477 0.000000 0.000000 0.000000 0.000000 0.000000 0.000000 61.819756 63.280496 -79.646595 126.844844 -65.420947 163.382999 28.508508 -8.817306 9.601936 -5.761210 60.587972 -38.549569 0.000000 0.000000 0.000000 0.000000 0.000000 0.000000 -113.166059 43.027340 47.023754 82.634914 -17.245511 29.771660 -15.518171 -43.691373 57.122732 0.000000 0.000000 0.000000 155.931789 76.741473 -44.029978 -51.240817 52.238214 -124.898063 45.112446 -26.152609 8.474469 0.000000 0.000000 0.000000
11.472045 37.075474 410.980474 10.955330 -9.776240 4.307091 -0.800527 0.024990 -3.165565 1.261359 -0.493542 0.578904 -15.486141 -0.073809 2.024162 0.000000 0.000000 0.000000 15.608339 26.237957 -20.350644 -4.396105 -41.246568 10.639099 -0.321491 -15.730762 12.133173 -0.126472 17.132712 -4.441704 0.000000 0.000000 0.000000 0.000000 0.000000 0.000000 90.435544 63.943378 -111.544113 134.451277 -55.462706 169.256902 32.251025 -16.620881 18.450905 -23.747856 64.118732 -23.215922 0.000000 0.000000 0.000000 0.000000 0.000000 0.000000 -103.907012 37.142655 36.933468 71.260788 -20.880974 18.860471 -3.804743 -42.026834 58.563071 0.000000 0.000000 0.000000 166.373770 77.321834 -51.471760 -49.887289 54.925674 -126.773132 29.703619 -11.755885 -4.752471 0.000000 0.000000 0.000000
